<svg xmlns="http://www.w3.org/2000/svg" id="Layer_1" viewBox="0 0 240 450"><defs><clipPath id="clippath"><path d="M82.96 15.31s-71.3 61.43-71.59 75.71c-.28 14.28 79.29 131.27 94.62 132.12s119.84-83.82 123.21-90.47c3.37-6.66-30.47-85.86-40.97-89.04S96.4 15.11 82.96 15.31" class="cls-10"/></clipPath><clipPath id="clippath-1"><path d="M69.99 215.7c-8.34 1.08-17.99 23.39-18.43 30.97s9.8 67.79 17.49 74.04c7.68 6.25 44.29 17.35 52.23 15.44s72.9-52.99 67.38-67.36c-5.21-13.56-26.56-27.51-41.11-33.59-10.23-4.27-60.57-21.71-77.54-19.51Z" class="cls-1"/></clipPath><clipPath id="clippath-2"><path d="M146.42 348.14c22.51 19.3 15.77 31.06 8.6 43.04S119.4 443 98.17 434.73c-16.82-6.55-32.2-32.83-31.88-49.32.21-10.68 29.47-52.17 49.3-50.05 13.28 1.42 18.64 2.35 30.82 12.79Z" class="cls-2"/></clipPath><style>.cls-1{fill:#ff7f7a}.cls-2{fill:#3ae668}.cls-10{fill:#7774f1}</style></defs><path d="M82.96 15.31s-71.3 61.43-71.59 75.71c-.28 14.28 79.29 131.27 94.62 132.12s119.84-83.82 123.21-90.47c3.37-6.66-30.47-85.86-40.97-89.04S96.4 15.11 82.96 15.31" class="cls-10"/><g style="clip-path:url(#clippath)"><path d="M188.23 43.63c3.58 21.6-15.86 66.18-26.48 80.93S106 223.14 106 223.14l88.92-4.31 88.02-96.71-94.71-78.5" style="fill:#5b58d1"/></g><path d="M69.99 215.7c-8.34 1.08-17.99 23.39-18.43 30.97s9.8 67.79 17.49 74.04c7.68 6.25 44.29 17.35 52.23 15.44s72.9-52.99 67.38-67.36c-5.21-13.56-26.56-27.51-41.11-33.59-10.23-4.27-60.57-21.71-77.54-19.51Z" class="cls-1"/><g style="clip-path:url(#clippath-1)"><path d="M82.27 302.38c18.75-5.08 49.27-6.48 72.9-11.07s67.44-37.03 79.25-49.13 18.38 5.1 18.38 5.1l2.59 73.48L211.45 341l-145.04-3.79z" style="fill:#c75467"/><path d="M34.91 186.57 1.86 215.79l57.28 134.6 22.88-47.79z" style="fill:#ff9284"/></g><path d="M146.42 348.14c22.51 19.3 15.77 31.06 8.6 43.04S119.4 443 98.17 434.73c-16.82-6.55-32.2-32.83-31.88-49.32.21-10.68 29.47-52.17 49.3-50.05 13.28 1.42 18.64 2.35 30.82 12.79Z" class="cls-2"/><g style="clip-path:url(#clippath-2)"><path d="M66.3 414.85s25.99 8.54 57.22-3.79c31.23-12.32 45.53-36.07 45.53-36.07l-7.17 38.59-6.74 51.86-78.41-2.53z" style="fill:#24af69"/></g></svg>