<svg xmlns="http://www.w3.org/2000/svg" id="Layer_1" viewBox="0 0 240 450"><defs><clipPath id="clippath"><path d="M146.42 348.14c22.51 19.3 15.77 31.06 8.6 43.04S119.4 443 98.17 434.73c-16.82-6.55-32.2-32.83-31.88-49.32.21-10.68 29.47-52.17 49.3-50.05 13.28 1.42 18.64 2.35 30.82 12.79Z" class="cls-1"/></clipPath><style>.cls-1{fill:#3ae668}</style></defs><path d="M146.42 348.14c22.51 19.3 15.77 31.06 8.6 43.04S119.4 443 98.17 434.73c-16.82-6.55-32.2-32.83-31.88-49.32.21-10.68 29.47-52.17 49.3-50.05 13.28 1.42 18.64 2.35 30.82 12.79Z" class="cls-1"/><g style="clip-path:url(#clippath)"><path d="M66.3 414.85s25.99 8.54 57.22-3.79c31.23-12.32 45.53-36.07 45.53-36.07l-7.17 38.59-6.74 51.86-78.41-2.53z" style="fill:#24af69"/></g></svg>